<svg xmlns="http://www.w3.org/2000/svg" width="32" height="32" viewBox="0 0 32 32">
  <rect width="32" height="32" rx="6" fill="#1a1a2e"/>
  <!-- Bridge arch -->
  <path d="M4 22C7 13 12 10 16 10C20 10 24 13 27 22" fill="none" stroke="#059669" stroke-width="2" stroke-linecap="round"/>
  <!-- Bridge deck -->
  <path d="M5 22L26 22" stroke="#d1fae5" stroke-width="1" stroke-linecap="round"/>
  <!-- Vertical cables -->
  <line x1="9" y1="22" x2="9" y2="16" stroke="#059669" stroke-width="1" stroke-linecap="round"/>
  <line x1="13" y1="22" x2="13" y2="13" stroke="#059669" stroke-width="1" stroke-linecap="round"/>
  <line x1="16" y1="22" x2="16" y2="11" stroke="#059669" stroke-width="1" stroke-linecap="round"/>
  <line x1="19" y1="22" x2="19" y2="13" stroke="#059669" stroke-width="1" stroke-linecap="round"/>
  <line x1="22" y1="22" x2="22" y2="16" stroke="#059669" stroke-width="1" stroke-linecap="round"/>
  <!-- Base -->
  <rect x="5" y="24" width="22" height="2" rx="2" fill="#059669"/>
  <!-- Top nodes and link -->
  <circle cx="11" cy="8" r="1" fill="#059669"/>
  <circle cx="21" cy="8" r="1" fill="#059669"/>
  <line x1="11" y1="8" x2="21" y2="8" stroke="#d1fae5" stroke-width="1" stroke-linecap="round"/>
  <!-- Search icon -->
  <circle cx="25" cy="26" r="2" fill="none" stroke="#d1fae5" stroke-width="1"/>
  <line x1="26" y1="27" x2="28" y2="29" stroke="#d1fae5" stroke-width="1" stroke-linecap="round"/>
</svg>
